<?xml version="1.0" encoding="utf-8"?>
<!-- Generator: Adobe Illustrator 17.0.0, SVG Export Plug-In . SVG Version: 6.00 Build 0)  -->
<!DOCTYPE svg PUBLIC "-//W3C//DTD SVG 1.1//EN" "http://www.w3.org/Graphics/SVG/1.1/DTD/svg11.dtd">
<svg version="1.1" id="Calque_1" xmlns="http://www.w3.org/2000/svg" xmlns:xlink="http://www.w3.org/1999/xlink" x="0px" y="0px"
	 width="512px" height="512px" viewBox="0 0 512 512" enable-background="new 0 0 512 512" xml:space="preserve">
<g>
	<g>
		<g>
			<path fill="#054776" d="M499.75,428.56h-17.86V160.23c0,0,0-0.01,0-0.02c0-19.46-14.26-35.66-32.88-38.71
				c-1.37-0.23-2.76-0.38-4.18-0.46c-0.72-0.04-1.45-0.07-2.19-0.07h-8.92V80.66c0-7.57-4.42-14.21-11.02-17.89
				c-2.9-1.61-6.23-2.65-9.79-2.94v-3.12c0-1.85-0.23-3.66-0.71-5.44c-0.14-0.5-0.32-1.1-0.52-1.62c-0.11-0.29-0.23-0.6-0.34-0.89
				c-0.03-0.06-0.05-0.12-0.08-0.18l-0.1-0.22c-0.09-0.2-0.18-0.41-0.32-0.69c-0.28-0.55-0.57-1.1-0.89-1.63
				c-0.03-0.05-0.06-0.1-0.1-0.15c-0.3-0.5-0.6-0.94-0.91-1.36c-0.04-0.07-0.09-0.13-0.14-0.2c-0.6-0.78-1.22-1.49-1.93-2.21
				c-3.9-3.89-9.07-6.03-14.57-6.03H271.62c-6.82,0-12.86,3.35-16.62,8.47c-3.75-5.12-9.79-8.47-16.62-8.47H117.7
				c-11.37,0-20.62,9.25-20.62,20.61v3.13c-2.88,0.24-5.6,0.96-8.08,2.09c-0.07,0.03-0.14,0.07-0.21,0.1
				c-0.24,0.11-0.49,0.23-0.73,0.35c-0.16,0.08-0.31,0.16-0.46,0.25c-0.15,0.08-0.3,0.15-0.44,0.24c-0.23,0.12-0.45,0.25-0.67,0.39
				c-0.06,0.04-0.13,0.08-0.19,0.12c-0.28,0.17-0.55,0.35-0.82,0.53c0,0-0.01,0-0.01,0.01c-1.1,0.74-2.13,1.58-3.07,2.5
				c-0.54,0.53-1.04,1.1-1.53,1.69c-0.03,0.04-0.06,0.08-0.09,0.11c-0.16,0.2-0.32,0.39-0.47,0.59c-0.08,0.09-0.13,0.2-0.21,0.3
				c-0.26,0.36-0.51,0.73-0.75,1.11c-0.11,0.18-0.22,0.35-0.33,0.53c-0.25,0.43-0.48,0.87-0.7,1.31c-0.06,0.11-0.12,0.21-0.17,0.32
				c-1.24,2.63-1.87,5.42-1.87,8.29v40.31h-6.92c-0.01,0-0.01,0-0.01,0c-21.64,0.01-39.24,17.61-39.24,39.24v268.35H12.25
				c-2.21,0-4,1.79-4,4v21.86c0,1.53,0.87,2.93,2.25,3.6l36.07,17.49c0.54,0.26,1.14,0.4,1.75,0.4h415.36c0.6,0,1.2-0.14,1.74-0.4
				l36.08-17.49c1.38-0.67,2.25-2.07,2.25-3.6v-21.86C503.75,430.35,501.96,428.56,499.75,428.56z M259,56.7
				c0.01-6.95,5.67-12.61,12.62-12.61H392.3c3.37,0,6.54,1.31,8.9,3.66c0.4,0.41,0.77,0.84,1.13,1.29c0.03,0.06,0.07,0.11,0.11,0.16
				c0.21,0.27,0.42,0.59,0.65,0.96c0.02,0.04,0.04,0.07,0.07,0.11c0.19,0.34,0.38,0.68,0.52,0.96c0.06,0.13,0.11,0.25,0.17,0.37
				l0.08,0.19c0.08,0.19,0.15,0.39,0.25,0.65c0.12,0.32,0.23,0.67,0.31,0.96c0.28,1.05,0.42,2.16,0.42,3.31v185.44
				c0,1.15-0.14,2.27-0.43,3.33c-0.09,0.33-0.18,0.65-0.3,0.96c-0.15,0.4-0.32,0.8-0.5,1.19c-0.18,0.36-0.38,0.72-0.59,1.08
				c-0.02,0.04-0.05,0.08-0.07,0.12c-0.2,0.32-0.41,0.62-0.6,0.88c-2.41,3.22-6.1,5.07-10.11,5.07H271.62
				c-6.95,0-12.61-5.66-12.62-12.62V56.7z M259,258.45c3.49,2.71,7.87,4.33,12.62,4.33h120.69c6.46,0,12.64-3.09,16.55-8.33
				c0.37-0.5,0.72-1.02,1.05-1.55c0.05-0.07,0.09-0.15,0.13-0.23c0.26-0.44,0.53-0.93,0.82-1.5c0.01-0.04,0.03-0.07,0.04-0.1
				c0.26-0.55,0.5-1.13,0.74-1.75c0.23-0.59,0.39-1.15,0.53-1.65c0.01-0.02,0.03-0.09,0.03-0.1c0.47-1.74,0.71-3.56,0.71-5.42V67.88
				c2.05,0.25,3.96,0.86,5.66,1.76c4.28,2.27,7.15,6.35,7.15,11.02v44.29c0,0.01,0,0.02,0,0.02c0,0.01,0,0.01,0,0.02v27.73
				c0,0.01,0,0.01,0,0.02s0,0.01,0,0.02v116.69c0,0,0,0,0,0.01c0,2.8-1.04,5.38-2.79,7.5c-2.7,3.27-7.1,5.41-12.07,5.41H273.87
				c-0.01,0-0.01,0-0.01,0c-8.2,0-14.86-5.79-14.86-12.91V258.45z M105.08,56.7c0-6.95,5.66-12.61,12.62-12.61h120.68
				c6.96,0,12.62,5.66,12.62,12.61c0,0.01,0,0.01,0,0.01v185.45c0,6.96-5.66,12.62-12.62,12.62H117.7
				c-6.96,0-12.62-5.66-12.62-12.62V56.7z M84.28,124.98c0,0,0,0,0-0.01c0,0,0,0,0-0.01v-44.3c0-0.88,0.11-1.75,0.3-2.58
				c0.02-0.07,0.04-0.14,0.06-0.22c0.09-0.33,0.18-0.66,0.3-0.99c0.05-0.15,0.12-0.29,0.17-0.43c0.1-0.25,0.2-0.5,0.31-0.74
				c0.09-0.18,0.2-0.36,0.3-0.54c0.1-0.18,0.19-0.37,0.3-0.55c0.14-0.22,0.29-0.43,0.44-0.64c0.1-0.15,0.19-0.3,0.3-0.44
				c0.08-0.1,0.17-0.2,0.25-0.3c0.16-0.2,0.32-0.39,0.49-0.58c0.13-0.13,0.26-0.27,0.39-0.41c0.09-0.08,0.17-0.16,0.26-0.24
				c0.27-0.26,0.55-0.51,0.85-0.75c0.09-0.08,0.18-0.15,0.27-0.22c0.3-0.23,0.6-0.44,0.91-0.65c0.1-0.06,0.19-0.13,0.29-0.19
				c0.33-0.2,0.66-0.39,1.01-0.57c0.09-0.05,0.17-0.1,0.27-0.15c0.37-0.18,0.75-0.35,1.14-0.51c0.07-0.03,0.14-0.06,0.21-0.09
				c0.42-0.16,0.85-0.31,1.29-0.44c0.05-0.01,0.09-0.03,0.13-0.04c0.47-0.14,0.95-0.25,1.44-0.34c0.02-0.01,0.04-0.01,0.06-0.01
				c0.35-0.07,0.7-0.11,1.06-0.15v174.27c0,11.37,9.25,20.62,20.62,20.62h120.68c4.76,0,9.13-1.63,12.62-4.35v11.03
				c0,0.01,0,0.01,0,0.02c-0.01,7.11-6.67,12.89-14.85,12.89h-137c-1.06,0-2.11-0.1-3.13-0.29c-0.04-0.01-0.08-0.02-0.12-0.03
				c-0.46-0.09-0.92-0.19-1.37-0.32c-0.06-0.02-0.12-0.04-0.18-0.06c-0.43-0.13-0.85-0.27-1.26-0.43c-0.07-0.03-0.15-0.06-0.22-0.09
				c-0.39-0.16-0.77-0.33-1.14-0.52c-0.09-0.04-0.17-0.09-0.25-0.13c-0.36-0.19-0.7-0.38-1.04-0.6c-0.09-0.05-0.17-0.11-0.26-0.16
				c-0.32-0.22-0.64-0.45-0.95-0.69c-0.08-0.06-0.16-0.13-0.24-0.19c-0.3-0.24-0.59-0.5-0.86-0.76c-0.1-0.1-0.19-0.18-0.29-0.28
				c-0.1-0.1-0.2-0.2-0.3-0.31c-0.19-0.21-0.38-0.43-0.56-0.65c-0.07-0.09-0.14-0.18-0.21-0.27c-0.12-0.16-0.23-0.32-0.34-0.49
				c-0.14-0.19-0.28-0.38-0.4-0.58c-0.14-0.22-0.26-0.45-0.38-0.68c-0.07-0.14-0.16-0.28-0.22-0.42c-0.12-0.24-0.21-0.49-0.31-0.74
				c-0.06-0.14-0.13-0.29-0.18-0.44c-0.11-0.31-0.2-0.63-0.29-0.96c-0.02-0.08-0.05-0.16-0.07-0.25c-0.19-0.83-0.3-1.69-0.3-2.57
				V124.98z M78.14,277.74c0.57,1.22,1.3,2.43,2.17,3.58c0.16,0.21,0.33,0.41,0.5,0.61c0.01,0.02,0.03,0.04,0.04,0.06
				c0.5,0.61,1.02,1.2,1.53,1.69c1.19,1.17,2.52,2.2,3.95,3.09c0.03,0.02,0.07,0.04,0.1,0.06c0.25,0.16,0.51,0.3,0.76,0.45
				c0.11,0.06,0.21,0.11,0.32,0.17c0.19,0.11,0.39,0.21,0.59,0.31c0.18,0.09,0.37,0.19,0.56,0.28c0.13,0.05,0.25,0.11,0.38,0.17
				c0.28,0.13,0.57,0.25,0.86,0.37c0.04,0.02,0.08,0.03,0.12,0.05c2.8,1.12,5.88,1.74,9.13,1.74c0,0,0.01,0,0.02,0h136.95
				c0,0,0.01,0,0.02,0c7.82,0,14.74-3.61,18.86-9.11c4.13,5.5,11.04,9.11,18.87,9.11c0,0,0.01,0,0.02,0h136.95c0,0,0.01,0,0.02,0
				c7.24,0,13.7-3.1,17.89-7.92c3.11-3.57,4.97-8.09,4.97-12.99V156.74h16.12V406.7H62.16V156.74h14.12v112.72
				C76.28,272.33,76.91,275.12,78.14,277.74z M38.11,160.21c0-17.22,14.02-31.24,31.25-31.24h6.92v19.77H58.16c-2.21,0-4,1.79-4,4
				V410.7c0,2.21,1.79,4,4,4h395.68c2.21,0,4-1.79,4-4V152.74c0-2.21-1.79-4-4-4h-20.12v-19.77h8.92c0.59,0,1.17,0.02,1.75,0.05
				c0.77,0.05,1.54,0.12,2.3,0.22c15.32,1.99,27.2,15.12,27.2,30.97v268.35H38.11V160.21z M495.75,451.92l-32.99,15.99H49.23
				l-32.98-15.99v-15.36h479.5V451.92z"/>
			<linearGradient id="SVGID_1_" gradientUnits="userSpaceOnUse" x1="178.04" y1="44.09" x2="178.04" y2="254.78">
				<stop  offset="0" style="stop-color:#E8F4F9"/>
				<stop  offset="1" style="stop-color:#D7F2FF"/>
			</linearGradient>
			<path fill="url(#SVGID_1_)" d="M238.38,44.09H117.7c-6.96,0-12.62,5.66-12.62,12.61v185.46c0,6.96,5.66,12.62,12.62,12.62h120.68
				c6.96,0,12.62-5.66,12.62-12.62V56.71c0,0,0,0,0-0.01C251,49.75,245.34,44.09,238.38,44.09z M231.36,239.63H124.72
				c-2.21,0-4-1.79-4-4s1.79-4,4-4h106.64c2.21,0,4,1.79,4,4S233.57,239.63,231.36,239.63z M231.36,223.88H124.72c-2.21,0-4-1.8-4-4
				c0-2.21,1.79-4,4-4h106.64c2.21,0,4,1.79,4,4C235.36,222.08,233.57,223.88,231.36,223.88z M231.36,208.11H124.72
				c-2.21,0-4-1.79-4-4c0-2.21,1.79-4,4-4h106.64c2.21,0,4,1.79,4,4C235.36,206.32,233.57,208.11,231.36,208.11z M231.36,192.35
				H124.72c-2.21,0-4-1.79-4-4c0-2.21,1.79-4,4-4h106.64c2.21,0,4,1.79,4,4C235.36,190.56,233.57,192.35,231.36,192.35z
				 M231.36,176.58H124.72c-2.21,0-4-1.79-4-4c0-2.2,1.79-4,4-4h106.64c2.21,0,4,1.8,4,4C235.36,174.79,233.57,176.58,231.36,176.58
				z M235.67,156.82c0,2.21-1.79,4-4,4H125.04c-2.21,0-4-1.79-4-4V63.23c0-2.21,1.79-4,4-4h106.63c2.21,0,4,1.79,4,4V156.82z"/>
			<linearGradient id="SVGID_2_" gradientUnits="userSpaceOnUse" x1="331.955" y1="44.09" x2="331.955" y2="254.78">
				<stop  offset="0" style="stop-color:#E8F4F9"/>
				<stop  offset="1" style="stop-color:#D7F2FF"/>
			</linearGradient>
			<path fill="url(#SVGID_2_)" d="M404.49,53.4c-0.08-0.29-0.19-0.64-0.31-0.96c-0.1-0.26-0.17-0.46-0.25-0.65l-0.08-0.19
				c-0.06-0.12-0.11-0.24-0.17-0.37c-0.14-0.28-0.33-0.62-0.52-0.96c-0.03-0.04-0.05-0.07-0.07-0.11c-0.23-0.37-0.44-0.69-0.65-0.96
				c-0.04-0.05-0.08-0.1-0.11-0.16c-0.36-0.45-0.73-0.88-1.13-1.29c-2.36-2.35-5.53-3.66-8.9-3.66H271.62
				c-6.95,0-12.61,5.66-12.62,12.61v185.46c0.01,6.96,5.67,12.62,12.62,12.62h120.69c4.01,0,7.7-1.85,10.11-5.07
				c0.19-0.26,0.4-0.56,0.6-0.88c0.02-0.04,0.05-0.08,0.07-0.12c0.21-0.36,0.41-0.72,0.59-1.08c0.18-0.39,0.35-0.79,0.5-1.19
				c0.12-0.31,0.21-0.63,0.3-0.96c0.29-1.06,0.43-2.18,0.43-3.33V56.71C404.91,55.56,404.77,54.45,404.49,53.4z M385.28,239.63
				H278.65c-2.21,0-4-1.79-4-4s1.79-4,4-4h106.63c2.21,0,4,1.79,4,4S387.49,239.63,385.28,239.63z M385.28,223.88H278.65
				c-2.21,0-4-1.8-4-4c0-2.21,1.79-4,4-4h106.63c2.21,0,4,1.79,4,4C389.28,222.08,387.49,223.88,385.28,223.88z M385.28,208.11
				H278.65c-2.21,0-4-1.79-4-4c0-2.21,1.79-4,4-4h106.63c2.21,0,4,1.79,4,4C389.28,206.32,387.49,208.11,385.28,208.11z
				 M385.28,192.35H278.65c-2.21,0-4-1.79-4-4c0-2.21,1.79-4,4-4h106.63c2.21,0,4,1.79,4,4
				C389.28,190.56,387.49,192.35,385.28,192.35z M385.28,176.58H278.65c-2.21,0-4-1.79-4-4c0-2.2,1.79-4,4-4h106.63
				c2.21,0,4,1.8,4,4C389.28,174.79,387.49,176.58,385.28,176.58z M389.28,156.82c0,2.21-1.79,4-4,4H278.65c-2.21,0-4-1.79-4-4
				V63.23c0-2.21,1.79-4,4-4h106.63c2.21,0,4,1.79,4,4V156.82z"/>
			<linearGradient id="SVGID_3_" gradientUnits="userSpaceOnUse" x1="167.64" y1="67.89" x2="167.64" y2="282.37">
				<stop  offset="0" style="stop-color:#C1E9F4"/>
				<stop  offset="1" style="stop-color:#97DCFF"/>
			</linearGradient>
			<path fill="url(#SVGID_3_)" d="M251,258.43v11.03c0,0.01,0,0.01,0,0.02c-0.01,7.11-6.67,12.89-14.85,12.89h-137
				c-1.06,0-2.11-0.1-3.13-0.29c-0.04-0.01-0.08-0.02-0.12-0.03c-0.46-0.09-0.92-0.19-1.37-0.32c-0.06-0.02-0.12-0.04-0.18-0.06
				c-0.43-0.13-0.85-0.27-1.26-0.43c-0.07-0.03-0.15-0.06-0.22-0.09c-0.39-0.16-0.77-0.33-1.14-0.52c-0.09-0.04-0.17-0.09-0.25-0.13
				c-0.36-0.19-0.7-0.38-1.04-0.6c-0.09-0.05-0.17-0.11-0.26-0.16c-0.32-0.22-0.64-0.45-0.95-0.69c-0.08-0.06-0.16-0.13-0.24-0.19
				c-0.3-0.24-0.59-0.5-0.86-0.76c-0.1-0.1-0.19-0.18-0.29-0.28c-0.1-0.1-0.2-0.2-0.3-0.31c-0.19-0.21-0.38-0.43-0.56-0.65
				c-0.07-0.09-0.14-0.18-0.21-0.27c-0.12-0.16-0.23-0.32-0.34-0.49c-0.14-0.19-0.28-0.38-0.4-0.58c-0.14-0.22-0.26-0.45-0.38-0.68
				c-0.07-0.14-0.16-0.28-0.22-0.42c-0.12-0.24-0.21-0.49-0.31-0.74c-0.06-0.14-0.13-0.29-0.18-0.44c-0.11-0.31-0.2-0.63-0.29-0.96
				c-0.02-0.08-0.05-0.16-0.07-0.25c-0.19-0.83-0.3-1.69-0.3-2.57V124.98c0,0,0,0,0-0.01c0,0,0,0,0-0.01v-44.3
				c0-0.88,0.11-1.75,0.3-2.58c0.02-0.07,0.04-0.14,0.06-0.22c0.09-0.33,0.18-0.66,0.3-0.99c0.05-0.15,0.12-0.29,0.17-0.43
				c0.1-0.25,0.2-0.5,0.31-0.74c0.09-0.18,0.2-0.36,0.3-0.54c0.1-0.18,0.19-0.37,0.3-0.55c0.14-0.22,0.29-0.43,0.44-0.64
				c0.1-0.15,0.19-0.3,0.3-0.44c0.08-0.1,0.17-0.2,0.25-0.3c0.16-0.2,0.32-0.39,0.49-0.58c0.13-0.13,0.26-0.27,0.39-0.41
				c0.09-0.08,0.17-0.16,0.26-0.24c0.27-0.26,0.55-0.51,0.85-0.75c0.09-0.08,0.18-0.15,0.27-0.22c0.3-0.23,0.6-0.44,0.91-0.65
				c0.1-0.06,0.19-0.13,0.29-0.19c0.33-0.2,0.66-0.39,1.01-0.57c0.09-0.05,0.17-0.1,0.27-0.15c0.37-0.18,0.75-0.35,1.14-0.51
				c0.07-0.03,0.14-0.06,0.21-0.09c0.42-0.16,0.85-0.31,1.29-0.44c0.05-0.01,0.09-0.03,0.13-0.04c0.47-0.14,0.95-0.25,1.44-0.34
				c0.02-0.01,0.04-0.01,0.06-0.01c0.35-0.07,0.7-0.11,1.06-0.15v174.27c0,11.37,9.25,20.62,20.62,20.62h120.68
				C243.14,262.78,247.51,261.15,251,258.43z"/>
			<linearGradient id="SVGID_4_" gradientUnits="userSpaceOnUse" x1="342.36" y1="67.88" x2="342.36" y2="282.37">
				<stop  offset="0" style="stop-color:#C1E9F4"/>
				<stop  offset="1" style="stop-color:#97DCFF"/>
			</linearGradient>
			<path fill="url(#SVGID_4_)" d="M425.72,80.66v44.29c0,0.01,0,0.02,0,0.02c0,0.01,0,0.01,0,0.02v27.73c0,0.01,0,0.01,0,0.02
				s0,0.01,0,0.02v116.69c0,0,0,0,0,0.01c0,2.8-1.04,5.38-2.79,7.5c-2.7,3.27-7.1,5.41-12.07,5.41H273.87c-0.01,0-0.01,0-0.01,0
				c-8.2,0-14.86-5.79-14.86-12.91v-11.01c3.49,2.71,7.87,4.33,12.62,4.33h120.69c6.46,0,12.64-3.09,16.55-8.33
				c0.37-0.5,0.72-1.02,1.05-1.55c0.05-0.07,0.09-0.15,0.13-0.23c0.26-0.44,0.53-0.93,0.82-1.5c0.01-0.04,0.03-0.07,0.04-0.1
				c0.26-0.55,0.5-1.13,0.74-1.75c0.23-0.59,0.39-1.15,0.53-1.65c0.01-0.02,0.03-0.09,0.03-0.1c0.47-1.74,0.71-3.56,0.71-5.42V67.88
				c2.05,0.25,3.96,0.86,5.66,1.76C422.85,71.91,425.72,75.99,425.72,80.66z"/>
			<path opacity="0.5" fill="#FFFFFF" d="M97.08,76.39c-0.36,0.04-0.71,0.08-1.06,0.15c-0.02,0-0.04,0-0.06,0.01
				c-0.49,0.09-0.97,0.2-1.44,0.34c-0.04,0.01-0.08,0.03-0.13,0.04c-0.44,0.13-0.87,0.28-1.29,0.44c-0.07,0.03-0.14,0.06-0.21,0.09
				c-0.39,0.16-0.77,0.33-1.14,0.51c-0.1,0.05-0.18,0.1-0.27,0.15c-0.35,0.18-0.68,0.37-1.01,0.57c-0.1,0.06-0.19,0.13-0.29,0.19
				c-0.31,0.21-0.61,0.42-0.91,0.65c-0.09,0.07-0.18,0.14-0.27,0.22c-0.3,0.24-0.58,0.49-0.85,0.75c-0.09,0.08-0.17,0.16-0.26,0.24
				c-0.13,0.14-0.26,0.28-0.39,0.41c-0.17,0.19-0.33,0.38-0.49,0.58c-0.08,0.1-0.17,0.2-0.25,0.3c-0.11,0.14-0.2,0.29-0.3,0.44
				c-0.15,0.21-0.3,0.42-0.44,0.64c-0.11,0.18-0.2,0.37-0.3,0.55c-0.1,0.18-0.21,0.36-0.3,0.54c-0.11,0.24-0.21,0.49-0.31,0.74
				c-0.05,0.14-0.12,0.28-0.17,0.43c-0.12,0.33-0.21,0.66-0.3,0.99c-0.02,0.08-0.04,0.15-0.06,0.22c-0.19,0.83-0.3,1.7-0.3,2.58
				v-8.5c0-0.88,0.11-1.75,0.3-2.58c0.02-0.07,0.04-0.14,0.06-0.22c0.09-0.33,0.18-0.66,0.3-0.99c0.05-0.15,0.12-0.29,0.17-0.43
				c0.1-0.25,0.2-0.5,0.31-0.74c0.09-0.18,0.2-0.36,0.3-0.54c0.1-0.18,0.19-0.37,0.3-0.55c0.14-0.22,0.29-0.43,0.44-0.64
				c0.1-0.15,0.19-0.3,0.3-0.44c0.08-0.1,0.17-0.2,0.25-0.3c0.16-0.2,0.32-0.39,0.49-0.58c0.13-0.13,0.26-0.27,0.39-0.41
				c0.09-0.08,0.17-0.16,0.26-0.24c0.27-0.26,0.55-0.51,0.85-0.75c0.09-0.08,0.18-0.15,0.27-0.22c0.3-0.23,0.6-0.44,0.91-0.65
				c0.1-0.06,0.19-0.13,0.29-0.19c0.33-0.2,0.66-0.39,1.01-0.57c0.09-0.05,0.17-0.1,0.27-0.15c0.37-0.18,0.75-0.35,1.14-0.51
				c0.07-0.03,0.14-0.06,0.21-0.09c0.42-0.16,0.85-0.31,1.29-0.44c0.05-0.01,0.09-0.03,0.13-0.04c0.47-0.14,0.95-0.25,1.44-0.34
				c0.02-0.01,0.04-0.01,0.06-0.01c0.35-0.07,0.7-0.11,1.06-0.15V76.39z"/>
			<path opacity="0.1" d="M251,258.43v8.5c-3.49,2.72-7.86,4.35-12.62,4.35H117.7c-11.37,0-20.62-9.25-20.62-20.62v-8.5
				c0,11.37,9.25,20.62,20.62,20.62h120.68C243.14,262.78,247.51,261.15,251,258.43z"/>
			<path opacity="0.1" d="M412.2,247.57c0.47-1.74,0.71-3.56,0.71-5.42v8.5c0,1.86-0.24,3.68-0.71,5.42c0,0.01-0.02,0.08-0.03,0.1
				c-0.14,0.5-0.3,1.06-0.53,1.65c-0.24,0.62-0.48,1.2-0.74,1.75c-0.01,0.03-0.03,0.06-0.04,0.1c-0.29,0.57-0.56,1.06-0.82,1.5
				c-0.04,0.08-0.08,0.16-0.13,0.23c-0.33,0.53-0.68,1.05-1.05,1.55c-3.91,5.24-10.09,8.33-16.55,8.33H271.62
				c-4.75,0-9.13-1.62-12.62-4.33v-8.5c3.49,2.71,7.87,4.33,12.62,4.33h120.69c6.46,0,12.64-3.09,16.55-8.33
				c0.37-0.5,0.72-1.02,1.05-1.55c0.05-0.07,0.09-0.15,0.13-0.23c0.26-0.44,0.53-0.93,0.82-1.5c0.01-0.04,0.03-0.07,0.04-0.1
				c0.26-0.55,0.5-1.13,0.74-1.75c0.23-0.59,0.39-1.15,0.53-1.65C412.18,247.65,412.2,247.58,412.2,247.57z"/>
			<path opacity="0.5" fill="#FFFFFF" d="M425.72,80.66v8.5c0-4.67-2.87-8.75-7.15-11.02c-1.7-0.9-3.61-1.51-5.66-1.76v-8.5
				c2.05,0.25,3.96,0.86,5.66,1.76C422.85,71.91,425.72,75.99,425.72,80.66z"/>
			<linearGradient id="SVGID_5_" gradientUnits="userSpaceOnUse" x1="38.11" y1="278.765" x2="473.89" y2="278.765">
				<stop  offset="0" style="stop-color:#E8F4F9"/>
				<stop  offset="1" style="stop-color:#D7F2FF"/>
			</linearGradient>
			<path fill="url(#SVGID_5_)" d="M473.89,160.21v268.35H38.11V160.21c0-17.22,14.02-31.24,31.25-31.24h6.92v19.77H58.16
				c-2.21,0-4,1.79-4,4V410.7c0,2.21,1.79,4,4,4h395.68c2.21,0,4-1.79,4-4V152.74c0-2.21-1.79-4-4-4h-20.12v-19.77h8.92
				c0.59,0,1.17,0.02,1.75,0.05c0.77,0.05,1.54,0.12,2.3,0.22C462.01,131.23,473.89,144.36,473.89,160.21z"/>
			<linearGradient id="SVGID_6_" gradientUnits="userSpaceOnUse" x1="256" y1="436.56" x2="256" y2="467.91">
				<stop  offset="0" style="stop-color:#C1E9F4"/>
				<stop  offset="1" style="stop-color:#97DCFF"/>
			</linearGradient>
			<path fill="url(#SVGID_6_)" d="M16.25,436.56v15.36l32.98,15.99h413.53l32.99-15.99v-15.36H16.25z M315.03,456.23H196.97
				c-2.21,0-4-1.79-4-4c0-2.21,1.79-4,4-4h118.06c2.2,0,4,1.79,4,4C319.03,454.44,317.23,456.23,315.03,456.23z"/>
			<linearGradient id="SVGID_7_" gradientUnits="userSpaceOnUse" x1="256" y1="156.74" x2="256" y2="406.7">
				<stop  offset="0" style="stop-color:#80E0F9"/>
				<stop  offset="1" style="stop-color:#4AC7FF"/>
			</linearGradient>
			<path fill="url(#SVGID_7_)" d="M433.72,156.74v112.72c0,4.9-1.86,9.42-4.97,12.99c-4.19,4.82-10.65,7.92-17.89,7.92
				c-0.01,0-0.02,0-0.02,0H273.89c-0.01,0-0.02,0-0.02,0c-6.74,0-12.79-2.67-16.98-6.92c-0.68-0.69-1.31-1.42-1.89-2.19
				c-4.12,5.5-11.04,9.11-18.86,9.11c-0.01,0-0.02,0-0.02,0H99.17c-0.01,0-0.02,0-0.02,0c-3.25,0-6.33-0.62-9.13-1.74
				c-0.04-0.02-0.08-0.03-0.12-0.05c-0.29-0.12-0.58-0.24-0.86-0.37c-0.13-0.06-0.25-0.12-0.38-0.17c-0.19-0.09-0.38-0.19-0.56-0.28
				c-0.2-0.1-0.4-0.2-0.59-0.31c-0.11-0.06-0.21-0.11-0.32-0.17c-0.25-0.15-0.51-0.29-0.76-0.45c-0.03-0.02-0.07-0.04-0.1-0.06
				c-1.43-0.89-2.76-1.92-3.95-3.09c-0.51-0.49-1.03-1.08-1.53-1.69c-0.01-0.02-0.03-0.04-0.04-0.06c-0.17-0.2-0.34-0.4-0.5-0.61
				c-0.87-1.15-1.6-2.36-2.17-3.58c-1.23-2.62-1.86-5.41-1.86-8.28V156.74H62.16V406.7h387.68V156.74H433.72z M434.68,345.63
				c0,0.13,0.01,0.26,0,0.39c-0.02,0.13-0.05,0.25-0.07,0.38c-0.03,0.13-0.05,0.25-0.08,0.38c-0.05,0.14-0.11,0.28-0.17,0.41
				c-0.04,0.09-0.06,0.18-0.1,0.26c-0.01,0.02-0.02,0.04-0.03,0.06c-0.03,0.05-0.07,0.1-0.1,0.15c-0.09,0.16-0.19,0.3-0.3,0.44
				c-0.04,0.05-0.08,0.11-0.12,0.16c-0.16,0.17-0.32,0.34-0.5,0.48c0,0,0,0,0,0.01c-0.19,0.15-0.4,0.27-0.61,0.39
				c-0.03,0.01-0.05,0.03-0.07,0.05l-32.4,16.63c-0.06,0.03-0.12,0.06-0.19,0.09c-0.04,0.02-0.09,0.04-0.14,0.06
				c-0.21,0.09-0.43,0.15-0.65,0.2c-0.03,0.01-0.07,0.01-0.1,0.02c-0.25,0.05-0.5,0.07-0.74,0.07c-0.01,0-0.01,0-0.01,0H116.37
				c-2.05,3.8-6.06,6.38-10.67,6.38s-8.62-2.58-10.67-6.38H79.3c-2.21,0-4-1.79-4-4v-33.27c0-2.21,1.79-4,4-4h15.73
				c2.05-3.8,6.06-6.38,10.67-6.38s8.62,2.58,10.67,6.38h281.94c0.05,0,0.09,0.01,0.14,0.01c0.14,0.01,0.28,0.03,0.42,0.05
				c0.13,0.01,0.25,0.03,0.38,0.06c0.12,0.03,0.24,0.07,0.36,0.11c0.13,0.05,0.26,0.1,0.39,0.16c0.05,0.02,0.09,0.03,0.13,0.05
				l32.4,16.64c0.02,0.01,0.03,0.02,0.05,0.03c0.13,0.07,0.26,0.16,0.39,0.25c0.09,0.06,0.18,0.12,0.27,0.19
				c0.1,0.08,0.18,0.18,0.27,0.27c0.1,0.09,0.2,0.18,0.28,0.28c0.07,0.08,0.12,0.17,0.18,0.26c0.09,0.13,0.18,0.26,0.26,0.4
				c0.01,0.02,0.02,0.03,0.03,0.05c0.04,0.08,0.06,0.17,0.1,0.26c0.06,0.14,0.12,0.27,0.17,0.42c0.03,0.12,0.05,0.25,0.08,0.37
				c0.02,0.13,0.05,0.26,0.07,0.39C434.69,345.37,434.68,345.5,434.68,345.63z"/>
			<path opacity="0.1" d="M62.16,156.74v8.5h14.12v-8.5H62.16z M428.75,282.45c-4.19,4.82-10.65,7.92-17.89,7.92
				c-0.01,0-0.02,0-0.02,0H273.89c-0.01,0-0.02,0-0.02,0c-7.83,0-14.74-3.61-18.87-9.11c-4.12,5.5-11.04,9.11-18.86,9.11
				c-0.01,0-0.02,0-0.02,0H99.17c-0.01,0-0.02,0-0.02,0c-3.25,0-6.33-0.62-9.13-1.74c-0.04-0.02-0.08-0.03-0.12-0.05
				c-0.29-0.12-0.58-0.24-0.86-0.37c-0.13-0.06-0.25-0.12-0.38-0.17c-0.19-0.09-0.38-0.19-0.56-0.28c-0.2-0.1-0.4-0.2-0.59-0.31
				c-0.11-0.06-0.21-0.11-0.32-0.17c-0.25-0.15-0.51-0.29-0.76-0.45c-0.03-0.02-0.07-0.04-0.1-0.06c-1.43-0.89-2.76-1.92-3.95-3.09
				c-0.51-0.49-1.03-1.08-1.53-1.69c-0.01-0.02-0.03-0.04-0.04-0.06c-0.17-0.2-0.34-0.4-0.5-0.61c-0.87-1.15-1.6-2.36-2.17-3.58
				c-1.23-2.62-1.86-5.41-1.86-8.28v8.5c0,2.87,0.63,5.66,1.86,8.28c0.57,1.22,1.3,2.43,2.17,3.58c0.16,0.21,0.33,0.41,0.5,0.61
				c0.01,0.02,0.03,0.04,0.04,0.06c0.5,0.61,1.02,1.2,1.53,1.69c1.19,1.17,2.52,2.2,3.95,3.09c0.03,0.02,0.07,0.04,0.1,0.06
				c0.25,0.16,0.51,0.3,0.76,0.45c0.11,0.06,0.21,0.11,0.32,0.17c0.19,0.11,0.39,0.21,0.59,0.31c0.18,0.09,0.37,0.19,0.56,0.28
				c0.13,0.05,0.25,0.11,0.38,0.17c0.28,0.13,0.57,0.25,0.86,0.37c0.04,0.02,0.08,0.03,0.12,0.05c2.8,1.12,5.88,1.74,9.13,1.74
				c0,0,0.01,0,0.02,0h136.95c0,0,0.01,0,0.02,0c7.82,0,14.74-3.61,18.86-9.11c4.13,5.5,11.04,9.11,18.87,9.11c0,0,0.01,0,0.02,0
				h136.95c0,0,0.01,0,0.02,0c7.24,0,13.7-3.1,17.89-7.92c3.11-3.57,4.97-8.09,4.97-12.99v-8.5
				C433.72,274.36,431.86,278.88,428.75,282.45z M433.72,156.74v8.5h16.12v-8.5H433.72z"/>
			<path fill="#054776" d="M319.03,452.23c0,2.21-1.8,4-4,4H196.97c-2.21,0-4-1.79-4-4c0-2.21,1.79-4,4-4h118.06
				C317.23,448.23,319.03,450.02,319.03,452.23z"/>
			<linearGradient id="SVGID_8_" gradientUnits="userSpaceOnUse" x1="120.72" y1="235.63" x2="235.36" y2="235.63">
				<stop  offset="0" style="stop-color:#80E0F9"/>
				<stop  offset="1" style="stop-color:#4AC7FF"/>
			</linearGradient>
			<path fill="url(#SVGID_8_)" d="M235.36,235.63c0,2.21-1.79,4-4,4H124.72c-2.21,0-4-1.79-4-4s1.79-4,4-4h106.64
				C233.57,231.63,235.36,233.42,235.36,235.63z"/>
			<linearGradient id="SVGID_9_" gradientUnits="userSpaceOnUse" x1="120.72" y1="219.88" x2="235.36" y2="219.88">
				<stop  offset="0" style="stop-color:#80E0F9"/>
				<stop  offset="1" style="stop-color:#4AC7FF"/>
			</linearGradient>
			<path fill="url(#SVGID_9_)" d="M235.36,219.88c0,2.2-1.79,4-4,4H124.72c-2.21,0-4-1.8-4-4c0-2.21,1.79-4,4-4h106.64
				C233.57,215.88,235.36,217.67,235.36,219.88z"/>
			<linearGradient id="SVGID_10_" gradientUnits="userSpaceOnUse" x1="120.72" y1="204.11" x2="235.36" y2="204.11">
				<stop  offset="0" style="stop-color:#80E0F9"/>
				<stop  offset="1" style="stop-color:#4AC7FF"/>
			</linearGradient>
			<path fill="url(#SVGID_10_)" d="M235.36,204.11c0,2.21-1.79,4-4,4H124.72c-2.21,0-4-1.79-4-4c0-2.21,1.79-4,4-4h106.64
				C233.57,200.11,235.36,201.9,235.36,204.11z"/>
			<linearGradient id="SVGID_11_" gradientUnits="userSpaceOnUse" x1="120.72" y1="188.35" x2="235.36" y2="188.35">
				<stop  offset="0" style="stop-color:#80E0F9"/>
				<stop  offset="1" style="stop-color:#4AC7FF"/>
			</linearGradient>
			<path fill="url(#SVGID_11_)" d="M235.36,188.35c0,2.21-1.79,4-4,4H124.72c-2.21,0-4-1.79-4-4c0-2.21,1.79-4,4-4h106.64
				C233.57,184.35,235.36,186.14,235.36,188.35z"/>
			<linearGradient id="SVGID_12_" gradientUnits="userSpaceOnUse" x1="120.72" y1="172.58" x2="235.36" y2="172.58">
				<stop  offset="0" style="stop-color:#80E0F9"/>
				<stop  offset="1" style="stop-color:#4AC7FF"/>
			</linearGradient>
			<path fill="url(#SVGID_12_)" d="M235.36,172.58c0,2.21-1.79,4-4,4H124.72c-2.21,0-4-1.79-4-4c0-2.2,1.79-4,4-4h106.64
				C233.57,168.58,235.36,170.38,235.36,172.58z"/>
			<linearGradient id="SVGID_13_" gradientUnits="userSpaceOnUse" x1="274.65" y1="172.58" x2="389.28" y2="172.58">
				<stop  offset="0" style="stop-color:#80E0F9"/>
				<stop  offset="1" style="stop-color:#4AC7FF"/>
			</linearGradient>
			<path fill="url(#SVGID_13_)" d="M389.28,172.58c0,2.21-1.79,4-4,4H278.65c-2.21,0-4-1.79-4-4c0-2.2,1.79-4,4-4h106.63
				C387.49,168.58,389.28,170.38,389.28,172.58z"/>
			<linearGradient id="SVGID_14_" gradientUnits="userSpaceOnUse" x1="274.65" y1="188.35" x2="389.28" y2="188.35">
				<stop  offset="0" style="stop-color:#80E0F9"/>
				<stop  offset="1" style="stop-color:#4AC7FF"/>
			</linearGradient>
			<path fill="url(#SVGID_14_)" d="M389.28,188.35c0,2.21-1.79,4-4,4H278.65c-2.21,0-4-1.79-4-4c0-2.21,1.79-4,4-4h106.63
				C387.49,184.35,389.28,186.14,389.28,188.35z"/>
			<linearGradient id="SVGID_15_" gradientUnits="userSpaceOnUse" x1="274.65" y1="204.11" x2="389.28" y2="204.11">
				<stop  offset="0" style="stop-color:#80E0F9"/>
				<stop  offset="1" style="stop-color:#4AC7FF"/>
			</linearGradient>
			<path fill="url(#SVGID_15_)" d="M389.28,204.11c0,2.21-1.79,4-4,4H278.65c-2.21,0-4-1.79-4-4c0-2.21,1.79-4,4-4h106.63
				C387.49,200.11,389.28,201.9,389.28,204.11z"/>
			<linearGradient id="SVGID_16_" gradientUnits="userSpaceOnUse" x1="274.65" y1="219.88" x2="389.28" y2="219.88">
				<stop  offset="0" style="stop-color:#80E0F9"/>
				<stop  offset="1" style="stop-color:#4AC7FF"/>
			</linearGradient>
			<path fill="url(#SVGID_16_)" d="M389.28,219.88c0,2.2-1.79,4-4,4H278.65c-2.21,0-4-1.8-4-4c0-2.21,1.79-4,4-4h106.63
				C387.49,215.88,389.28,217.67,389.28,219.88z"/>
			<linearGradient id="SVGID_17_" gradientUnits="userSpaceOnUse" x1="274.65" y1="235.63" x2="389.28" y2="235.63">
				<stop  offset="0" style="stop-color:#80E0F9"/>
				<stop  offset="1" style="stop-color:#4AC7FF"/>
			</linearGradient>
			<path fill="url(#SVGID_17_)" d="M389.28,235.63c0,2.21-1.79,4-4,4H278.65c-2.21,0-4-1.79-4-4s1.79-4,4-4h106.63
				C387.49,231.63,389.28,233.42,389.28,235.63z"/>
			<path fill="#054776" d="M385.28,59.23H278.65c-2.21,0-4,1.79-4,4v93.59c0,2.21,1.79,4,4,4h106.63c2.21,0,4-1.79,4-4V63.23
				C389.28,61.02,387.49,59.23,385.28,59.23z M305.76,152.82l12.26-21.24l2.66-4.61l11.28-19.53l8.56,14.84l-17.63,30.54H305.76z
				 M381.28,152.82h-49.15l14.92-25.85c0.01,0,0.01-0.01,0.01-0.01l20.41-35.35l13.81,23.91V152.82z M381.28,99.53l-10.35-17.92
				c-0.71-1.24-2.03-2-3.46-2c-1.43,0-2.75,0.76-3.47,2l-18.86,32.67l-9.72-16.84c-0.71-1.24-2.03-2-3.46-2s-2.75,0.76-3.46,2
				l-24.17,41.86l-7.81,13.52h-13.87V67.23h98.63V99.53z"/>
			<linearGradient id="SVGID_18_" gradientUnits="userSpaceOnUse" x1="282.65" y1="110.025" x2="381.28" y2="110.025">
				<stop  offset="0" style="stop-color:#E8F4F9"/>
				<stop  offset="1" style="stop-color:#D7F2FF"/>
			</linearGradient>
			<path fill="url(#SVGID_18_)" d="M282.65,67.23v85.59h13.87l7.81-13.52l24.17-41.86c0.71-1.24,2.03-2,3.46-2s2.75,0.76,3.46,2
				l9.72,16.84L364,81.61c0.72-1.24,2.04-2,3.47-2c1.43,0,2.75,0.76,3.46,2l10.35,17.92v-32.3H282.65z M304.1,102.7
				c-7.9,0-14.32-6.43-14.32-14.33s6.42-14.32,14.32-14.32c7.9,0,14.32,6.42,14.32,14.32S312,102.7,304.1,102.7z"/>
			<linearGradient id="SVGID_19_" gradientUnits="userSpaceOnUse" x1="323.14" y1="107.44" x2="323.14" y2="152.82">
				<stop  offset="0" style="stop-color:#80E0F9"/>
				<stop  offset="1" style="stop-color:#4AC7FF"/>
			</linearGradient>
			<polygon fill="url(#SVGID_19_)" points="340.52,122.28 322.89,152.82 305.76,152.82 318.02,131.58 320.68,126.97 331.96,107.44 
							"/>
			<linearGradient id="SVGID_20_" gradientUnits="userSpaceOnUse" x1="356.705" y1="91.61" x2="356.705" y2="152.82">
				<stop  offset="0" style="stop-color:#80E0F9"/>
				<stop  offset="1" style="stop-color:#4AC7FF"/>
			</linearGradient>
			<path fill="url(#SVGID_20_)" d="M381.28,115.52v37.3h-49.15l14.92-25.85c0.01,0,0.01-0.01,0.01-0.01l20.41-35.35L381.28,115.52z"
				/>
			<path fill="#054776" d="M231.67,59.23H125.04c-2.21,0-4,1.79-4,4v93.59c0,2.21,1.79,4,4,4h106.63c2.21,0,4-1.79,4-4V63.23
				C235.67,61.02,233.88,59.23,231.67,59.23z M227.67,152.82h-98.63V67.23h98.63V152.82z"/>
			<linearGradient id="SVGID_21_" gradientUnits="userSpaceOnUse" x1="178.355" y1="67.23" x2="178.355" y2="152.82">
				<stop  offset="0" style="stop-color:#C1E9F4"/>
				<stop  offset="1" style="stop-color:#97DCFF"/>
			</linearGradient>
			<path fill="url(#SVGID_21_)" d="M129.04,67.23v85.59h98.63V67.23H129.04z M196.23,116.81l-31.75,18.33
				c-0.62,0.36-1.31,0.54-2,0.54s-1.38-0.18-2-0.54c-1.24-0.71-2-2.03-2-3.46V95.02c0-1.43,0.76-2.75,2-3.47
				c1.24-0.71,2.76-0.71,4,0l31.75,18.33c1.24,0.72,2,2.04,2,3.47C198.23,114.78,197.47,116.1,196.23,116.81z"/>
			<path fill="#054776" d="M304.1,74.05c-7.9,0-14.32,6.42-14.32,14.32s6.42,14.33,14.32,14.33c7.9,0,14.32-6.43,14.32-14.33
				S312,74.05,304.1,74.05z M304.1,94.7c-3.49,0-6.32-2.84-6.32-6.33c0-3.48,2.83-6.32,6.32-6.32c3.49,0,6.32,2.84,6.32,6.32
				C310.42,91.86,307.59,94.7,304.1,94.7z"/>
			<linearGradient id="SVGID_22_" gradientUnits="userSpaceOnUse" x1="297.78" y1="88.375" x2="310.42" y2="88.375">
				<stop  offset="0" style="stop-color:#80E0F9"/>
				<stop  offset="1" style="stop-color:#4AC7FF"/>
			</linearGradient>
			<path fill="url(#SVGID_22_)" d="M310.42,88.37c0,3.49-2.83,6.33-6.32,6.33c-3.49,0-6.32-2.84-6.32-6.33
				c0-3.48,2.83-6.32,6.32-6.32C307.59,82.05,310.42,84.89,310.42,88.37z"/>
			<path fill="#054776" d="M196.23,109.88l-31.75-18.33c-1.24-0.71-2.76-0.71-4,0c-1.24,0.72-2,2.04-2,3.47v36.66
				c0,1.43,0.76,2.75,2,3.46c0.62,0.36,1.31,0.54,2,0.54s1.38-0.18,2-0.54l31.75-18.33c1.24-0.71,2-2.03,2-3.46
				C198.23,111.92,197.47,110.6,196.23,109.88z M166.48,124.75v-22.8l19.75,11.4L166.48,124.75z"/>
			<linearGradient id="SVGID_23_" gradientUnits="userSpaceOnUse" x1="176.355" y1="101.95" x2="176.355" y2="124.75">
				<stop  offset="0" style="stop-color:#80E0F9"/>
				<stop  offset="1" style="stop-color:#4AC7FF"/>
			</linearGradient>
			<polygon fill="url(#SVGID_23_)" points="186.23,113.35 166.48,124.75 166.48,101.95 			"/>
			<path fill="#054776" d="M434.61,344.85c-0.03-0.12-0.05-0.25-0.08-0.37c-0.05-0.15-0.11-0.28-0.17-0.42
				c-0.04-0.09-0.06-0.18-0.1-0.26c-0.01-0.02-0.02-0.03-0.03-0.05c-0.08-0.14-0.17-0.27-0.26-0.4c-0.06-0.09-0.11-0.18-0.18-0.26
				c-0.08-0.1-0.18-0.19-0.28-0.28c-0.09-0.09-0.17-0.19-0.27-0.27c-0.09-0.07-0.18-0.13-0.27-0.19c-0.13-0.09-0.26-0.18-0.39-0.25
				c-0.02-0.01-0.03-0.02-0.05-0.03l-32.4-16.64c-0.04-0.02-0.08-0.03-0.13-0.05c-0.13-0.06-0.26-0.11-0.39-0.16
				c-0.12-0.04-0.24-0.08-0.36-0.11c-0.13-0.03-0.25-0.05-0.38-0.06c-0.14-0.02-0.28-0.04-0.42-0.05c-0.05,0-0.09-0.01-0.14-0.01
				H116.37c-2.05-3.8-6.06-6.38-10.67-6.38s-8.62,2.58-10.67,6.38H79.3c-2.21,0-4,1.79-4,4v33.27c0,2.21,1.79,4,4,4h15.73
				c2.05,3.8,6.06,6.38,10.67,6.38s8.62-2.58,10.67-6.38H398.3c0,0,0,0,0.01,0c0.24,0,0.49-0.02,0.74-0.07
				c0.03-0.01,0.07-0.01,0.1-0.02c0.22-0.05,0.44-0.11,0.65-0.2c0.05-0.02,0.1-0.04,0.14-0.06c0.07-0.03,0.13-0.06,0.19-0.09
				l32.4-16.63c0.02-0.02,0.04-0.04,0.07-0.05c0.21-0.12,0.42-0.24,0.61-0.39c0-0.01,0-0.01,0-0.01c0.18-0.14,0.34-0.31,0.5-0.48
				c0.04-0.05,0.08-0.11,0.12-0.16c0.11-0.14,0.21-0.28,0.3-0.44c0.03-0.05,0.07-0.1,0.1-0.15c0.01-0.02,0.02-0.04,0.03-0.06
				c0.04-0.08,0.06-0.17,0.1-0.26c0.06-0.13,0.12-0.27,0.17-0.41c0.03-0.13,0.05-0.25,0.08-0.38c0.02-0.13,0.05-0.25,0.07-0.38
				c0.01-0.13,0-0.26,0-0.39s0.01-0.26,0-0.39C434.66,345.11,434.63,344.98,434.61,344.85z M93.58,358.26H83.3v-25.27h10.28V358.26z
				 M109.82,360.52c0,2.27-1.85,4.12-4.12,4.12c-1.94,0-3.57-1.35-4-3.16c-0.01-0.05-0.03-0.1-0.04-0.15
				c-0.05-0.26-0.08-0.53-0.08-0.81v-29.79c0-0.28,0.03-0.55,0.08-0.81c0.01-0.05,0.03-0.09,0.04-0.14c0.43-1.82,2.06-3.17,4-3.17
				c2.27,0,4.12,1.85,4.12,4.12V360.52z M394.31,358.26H117.82v-25.27h276.49V358.26z M402.31,355.71v-20.17l19.64,10.09
				L402.31,355.71z"/>
			<linearGradient id="SVGID_24_" gradientUnits="userSpaceOnUse" x1="105.7" y1="326.61" x2="105.7" y2="364.64">
				<stop  offset="0" style="stop-color:#C1E9F4"/>
				<stop  offset="1" style="stop-color:#97DCFF"/>
			</linearGradient>
			<path fill="url(#SVGID_24_)" d="M109.82,330.73v29.79c0,2.27-1.85,4.12-4.12,4.12c-1.94,0-3.57-1.35-4-3.16
				c-0.01-0.05-0.03-0.1-0.04-0.15c-0.05-0.26-0.08-0.53-0.08-0.81v-29.79c0-0.28,0.03-0.55,0.08-0.81
				c0.01-0.05,0.03-0.09,0.04-0.14c0.43-1.82,2.06-3.17,4-3.17C107.97,326.61,109.82,328.46,109.82,330.73z"/>
			<rect x="83.3" y="332.99" fill="#FFFFFF" width="10.28" height="25.27"/>
			<rect x="83.3" y="353.5" opacity="0.1" width="10.28" height="4.76"/>
			<polygon fill="#FFFFFF" points="421.95,345.63 402.31,355.71 402.31,335.54 			"/>
			<polygon opacity="0.1" points="421.95,345.63 402.31,355.71 402.31,350.72 417.09,343.13 			"/>
			<linearGradient id="SVGID_25_" gradientUnits="userSpaceOnUse" x1="256.065" y1="332.99" x2="256.065" y2="358.26">
				<stop  offset="0" style="stop-color:#E8F4F9"/>
				<stop  offset="1" style="stop-color:#D7F2FF"/>
			</linearGradient>
			<path fill="url(#SVGID_25_)" d="M117.82,332.99v25.27h276.49v-25.27H117.82z M385.01,349.63H127.25c-2.21,0-4-1.79-4-4
				s1.79-4,4-4h257.76c2.21,0,4,1.79,4,4S387.22,349.63,385.01,349.63z"/>
			<linearGradient id="SVGID_26_" gradientUnits="userSpaceOnUse" x1="123.25" y1="345.63" x2="389.01" y2="345.63">
				<stop  offset="0" style="stop-color:#80E0F9"/>
				<stop  offset="1" style="stop-color:#4AC7FF"/>
			</linearGradient>
			<path fill="url(#SVGID_26_)" d="M389.01,345.63c0,2.21-1.79,4-4,4H127.25c-2.21,0-4-1.79-4-4s1.79-4,4-4h257.76
				C387.22,341.63,389.01,343.42,389.01,345.63z"/>
		</g>
	</g>
	<rect x="117.82" y="353.5" opacity="0.1" width="276.18" height="4.76"/>
	<rect x="117.82" y="332.99" opacity="0.6" fill="#FFFFFF" width="276.18" height="4.76"/>
	<linearGradient id="SVGID_27_" gradientUnits="userSpaceOnUse" x1="251.745" y1="277.5902" x2="357.175" y2="460.2002">
		<stop  offset="0" style="stop-color:#000000"/>
		<stop  offset="1" style="stop-color:#FFFFFF;stop-opacity:0"/>
	</linearGradient>
	<path opacity="0.1" fill="url(#SVGID_27_)" d="M449.84,163.22V406.7H62.16v-1.91l61.83-38.53H398.3c0,0,0,0,0.01,0
		c0.24,0,0.49-0.02,0.74-0.07c0.03-0.01,0.07-0.01,0.1-0.02c0.22-0.05,0.44-0.11,0.65-0.2c0.05-0.02,0.1-0.04,0.14-0.06
		c0.07-0.03,0.13-0.06,0.19-0.09l32.4-16.63c0.02-0.02,0.04-0.04,0.07-0.05c0.21-0.12,0.42-0.24,0.61-0.39c0-0.01,0-0.01,0-0.01
		c0.18-0.14,0.34-0.31,0.5-0.48c0.04-0.05,0.08-0.11,0.12-0.16c0.11-0.14,0.21-0.28,0.3-0.44c0.03-0.05,0.07-0.1,0.1-0.15
		c0.01-0.02,0.02-0.04,0.03-0.06c0.04-0.08,0.06-0.17,0.1-0.26c0.06-0.13,0.12-0.27,0.17-0.41c0.03-0.13,0.05-0.25,0.08-0.38
		c0.02-0.13,0.05-0.25,0.07-0.38c0.01-0.13,0-0.26,0-0.39s0.01-0.26,0-0.39c-0.02-0.13-0.05-0.26-0.07-0.39
		c-0.03-0.12-0.05-0.25-0.08-0.37c-0.05-0.15-0.11-0.28-0.17-0.42c-0.04-0.09-0.06-0.18-0.1-0.26c-0.01-0.02-0.02-0.03-0.03-0.05
		c-0.08-0.14-0.17-0.27-0.26-0.4c-0.06-0.09-0.11-0.18-0.18-0.26c-0.08-0.1-0.18-0.19-0.28-0.28c-0.09-0.09-0.17-0.19-0.27-0.27
		c-0.09-0.07-0.18-0.13-0.27-0.19c-0.13-0.09-0.26-0.18-0.39-0.25c-0.02-0.01-0.03-0.02-0.05-0.03l-32.4-16.64
		c-0.04-0.02-0.08-0.03-0.13-0.05c-0.13-0.06-0.26-0.11-0.39-0.16c-0.12-0.04-0.24-0.08-0.36-0.11c-0.13-0.03-0.25-0.05-0.38-0.06
		c-0.14-0.02-0.28-0.04-0.42-0.05c-0.05,0-0.09-0.01-0.14-0.01H190.22l66.67-41.54c4.19,4.25,10.24,6.92,16.98,6.92
		c0,0,0.01,0,0.02,0h136.95c0,0,0.01,0,0.02,0c7.24,0,13.7-3.1,17.89-7.92c3.11-3.57,4.97-8.09,4.97-12.99v-96.19L449.84,163.22z"/>
</g>
</svg>
